# xmcd
#
# Track frame offsets: 
#        150
#        12077
#        25332
#        36071
#        45995
#        58425
#        69197
#        81193
#        95936
#        108458
#        119994
#        131687
#        142398
#        156702
#        167907
#        180929
#        192664
#        208872
#        219355
#        229475
#        239864
#        249647
#        263317
#        273813
#        285322
#        303017
#        313080
#        323757
#
# Disc length: 4425 seconds
#
# Revision: 0
# Processed by: cddbd v1.5.2PL0 Copyright (c) Steve Scherf et al.
# Submitted via: ExactAudioCopy v0.95b4
#
DISCID=ab11471c
DTITLE=The Beatles  - Library 3 - Solo Originals  FLAC
DYEAR=1900
DGENRE=
TTITLE0=Gene Vincent And Blue Caps - Be-Bop-A-Lula
TTITLE1=Ben E. King - Stand By Me
TTITLE2=Little Richard - Rip It Up
TTITLE3=Little Richard - Ready Teddy
TTITLE4=Chuck Berry - You Can´t Catch Me
TTITLE5=Fats Domino - Ain´t That A Shame
TTITLE6=Bobby Freeman - Do You Wanna Dance
TTITLE7=Chuck Berry - Sweet Little Sixteen
TTITLE8=Little Richard - Slippin´ And Slidin´
TTITLE9=Buddy Holly - Peggy Sue
TTITLE10=Sam Cooke - Bring It On Home To Me
TTITLE11=Little Richard - Send Me Some Loving
TTITLE12=Larry Williams - Bony Moronie
TTITLE13=Lee Dorsey - Ya Ya
TTITLE14=Lloyd Price - Just Because
TTITLE15=The Ronettes - Be My Baby
TTITLE16=Rosie And The Originals - Angel Baby
TTITLE17=Carl Perkins - Blue Suede Shoes
TTITLE18=Elvis Presley - My Baby Left Me
TTITLE19=Elvis Presley - Hound Dog
TTITLE20=John Leyton - Fabulous
TTITLE21=Buddy Holly - Love Is Strange
TTITLE22=Del Shannon - Runaway
TTITLE23=Hoagy Carmichael - Hong Kong Blues
TTITLE24=Hoagy Carmichael - Baltimore Oriole
TTITLE25=The Stereos - I Really Love You
TTITLE26=The Everly Brothers - Bye Bye Love
TTITLE27=Rudy Clark - Got My Mind Set On You
EXTD=
EXTT0=
EXTT1=
EXTT2=
EXTT3=
EXTT4=
EXTT5=
EXTT6=
EXTT7=
EXTT8=
EXTT9=
EXTT10=
EXTT11=
EXTT12=
EXTT13=
EXTT14=
EXTT15=
EXTT16=
EXTT17=
EXTT18=
EXTT19=
EXTT20=
EXTT21=
EXTT22=
EXTT23=
EXTT24=
EXTT25=
EXTT26=
EXTT27=
PLAYORDER=
